<?xml version="1.0" encoding="UTF-8"?>
<svg id="Layer_2" data-name="Layer 2" xmlns="http://www.w3.org/2000/svg" viewBox="0 0 131.18 111.61">
  <defs>
    <style>
      .cls-1 {
        fill: #4a88ba;
      }

      .cls-1, .cls-2, .cls-3 {
        stroke-width: 0px;
      }

      .cls-2 {
        fill: #312364;
      }

      .cls-3 {
        fill: #f37321;
      }
    </style>
  </defs>
  <g id="Layer_1-2" data-name="Layer 1">
    <g>
      <g>
        <g>
          <path class="cls-2" d="m9.65,46.52c7.07,0,10.07,5.01,10.07,11.12v3.71c0,6.21-3.54,9.11-9.75,9.11H0v-13.02c0-6.11,3.32-10.92,9.65-10.92Zm-.54-8.51l-3.86,3.51-4.18-3.81,4.07-4.01,3.86,3.61,3.75-3.71,4.29,4.01-4.18,3.81-3.75-3.41Zm3.86,23.33c1.93,0,3.43-1.4,3.43-3.2,0-1.7-1.5-3.1-3.32-3.1h-6.43c-1.82,0-3.32,1.4-3.32,3.1v3.2h9.65Z"/>
          <path class="cls-2" d="m20.79,76.87h5.79c3.43,0,7.4-1.5,7.4-7.21v-20.03h3.43v24.54c0,4.31-1.39,11.82-10.82,11.82h-5.79v-9.11Z"/>
          <path class="cls-2" d="m104.82,70.46h.43c-.14,0-.29,0-.43,0Zm-9.86-33.65l-4.08,4.01,4.18,3.81,4.18-3.81-4.28-4.01Z"/>
        </g>
        <g>
          <path class="cls-2" d="m9.65,46.52c7.07,0,10.07,5.01,10.07,11.12v3.71c0,6.21-3.54,9.11-9.75,9.11H0v-13.02c0-6.11,3.32-10.92,9.65-10.92Zm-.54-8.51l-3.86,3.51-4.18-3.81,4.07-4.01,3.86,3.61,3.75-3.71,4.29,4.01-4.18,3.81-3.75-3.41Zm3.86,23.33c1.93,0,3.43-1.4,3.43-3.2,0-1.7-1.5-3.1-3.32-3.1h-6.43c-1.82,0-3.32,1.4-3.32,3.1v3.2h9.65Z"/>
          <path class="cls-2" d="m20.79,76.87h5.79c3.43,0,7.4-1.5,7.4-7.21v-20.03h3.43v24.54c0,4.31-1.39,11.82-10.82,11.82h-5.79v-9.11Z"/>
          <path class="cls-2" d="m104.82,70.46h.43c-.14,0-.29,0-.43,0Zm-9.86-33.65l-4.08,4.01,4.18,3.81,4.18-3.81-4.28-4.01Z"/>
          <path class="cls-2" d="m121.43,46.52c-10.07,0-10.07,11.12-10.07,11.12,0,3.11-2.25,3.71-5.25,3.71h-9.54v-11.72h-3.48v11.72h-48.19c1.87-3.27,5.92-4.2,8.11-4.47.06,0,.12-.02.18-.02,2.02-.23,3.98-.75,5.81-1.57.74-.33,1.39-.68,1.95-1.04l-.35-6.3c-.82.94-2.22,2.14-4.54,3.2-.9.41-1.84.74-2.8.99-.98.27-1.99.46-3.01.58-1.23.14-3.17.5-4.96,1.43l-.19,3.38-.02.38c-.07,1.28-.13,2.42-.18,3.44h-.03v9.12h41.96c5.2,0,7.66-2.06,8.79-4.36v4.36h9.22c.14,0,.29,0,.43-.01,3.14-.14,5.85-1.8,7.29-4.3,1.71,2.9,4.93,4.31,8.68,4.31h9.97v-13.02c0-1.9-.43-10.92-9.75-10.92Zm6.32,14.82h-9.54c-1.93,0-3.43-1.4-3.43-3.21,0-1.7,1.5-3.1,3.32-3.1h6.43c1.83,0,3.22,1.4,3.22,3.1v3.21Z"/>
        </g>
      </g>
      <path class="cls-3" d="m70.15,15.91c0,8.78-7.63,15.9-17.03,15.9-8.27,0-15.16-5.52-16.69-12.83l16.57-8.93-11.17-6.03C44.83,1.51,48.8,0,53.14,0c9.4,0,17.02,7.13,17.01,15.91Z"/>
      <path class="cls-2" d="m53.2,35.38c-1.74.2-4.87.83-7.01,2.87l.35-6.14.48-6.61,12.21-.13.13,2.3.42,5.77c-.25.13-.5.25-.78.37-1.83.83-3.8,1.34-5.81,1.57Z"/>
      <path class="cls-2" d="m60.03,37.81l.34,6.05c-.42.24-.87.46-1.36.69-1.83.83-3.8,1.34-5.81,1.57-.15.02-.32.04-.49.06h0c-2,.29-5.22,1.11-7.16,3.51l.25-4.42.12-2.16c1.6-.71,3.24-1,4.34-1.13,2.01-.23,3.98-.74,5.81-1.57,1.86-.84,3.12-1.77,3.97-2.59Z"/>
      <path class="cls-1" d="m45.06,57.9c-.07,1.29-.13,2.44-.18,3.46,0,0-.01.02-.02.03l.2-3.49Z"/>
      <polygon class="cls-2" points="47.02 19.97 59.23 19.98 59.87 22.14 46.38 22.14 47.02 19.97"/>
      <polygon class="cls-2" points="47.01 24.19 59.23 24.2 59.87 23 46.38 23 47.01 24.19"/>
      <path class="cls-2" d="m56.71,14.26v4.86s-7.16,0-7.16,0v-4.86c0-1.76,1.46-3.21,3.32-3.33v-.39c-.17-.07-.29-.24-.29-.43v-.11c0-.26.21-.47.47-.47h.18c.26,0,.47.21.47.47v.11c0,.19-.12.36-.29.43v.39c1.85.13,3.31,1.57,3.31,3.34Z"/>
      <g>
        <path class="cls-2" d="m23.39,91.43l-9.95,15.52-9.95-15.52h-.49v20.18h.61v-18.93l9.58,14.95h.49l9.58-14.95v18.93h.61v-20.18h-.49Z"/>
        <path class="cls-2" d="m37.41,91.43h-.55l-9.43,20.18h.67l3.37-7.22h11.31l3.36,7.22h.67l-9.4-20.18Zm-5.67,12.39l5.4-11.57,5.38,11.57h-10.78Z"/>
        <path class="cls-2" d="m67.37,91.43v19.35l-16.52-19.35h-.46v20.18h.61v-19.07l16.27,19.07h.7v-20.18h-.6Z"/>
        <path class="cls-2" d="m81.51,91.43h-.55l-9.43,20.18h.67l3.37-7.22h11.31l3.36,7.22h.67l-9.4-20.18Zm-5.67,12.39l5.4-11.57,5.38,11.57h-10.78Z"/>
        <path class="cls-2" d="m106.75,102.68c.82-.59,1.46-1.33,1.93-2.23.47-.9.7-1.87.7-2.91,0-.76-.15-1.49-.46-2.21-.3-.72-.73-1.37-1.26-1.96-.54-.59-1.18-1.06-1.92-1.41-.74-.35-1.55-.53-2.45-.53h-8.79v20.18h.61v-7.93h8.03l5.48,7.93h.73l-5.48-7.93c1.1-.08,2.05-.41,2.88-.99Zm-11.64.43v-11.11h8.18c1.01,0,1.93.26,2.77.78.83.52,1.49,1.2,1.98,2.05.49.84.73,1.75.73,2.71s-.22,1.82-.64,2.67c-.43.85-1.03,1.55-1.81,2.09-.78.54-1.72.81-2.81.81h-8.4Z"/>
        <path class="cls-2" d="m127.45,104.84h-.66l3.15,6.77h.67l-3.15-6.77Zm-6.25-13.41h-.55l-9.43,20.18h.67l3.37-7.22h9.87s2.1,0,2.1,0l-6.03-12.95Zm-5.67,12.39l5.4-11.57,5.38,11.57h-10.78Z"/>
      </g>
      <polygon class="cls-3" points="127.45 104.84 126.79 104.84 129.94 111.61 130.61 111.61 127.45 104.84"/>
    </g>
  </g>
</svg>