<?xml version="1.0" encoding="UTF-8"?>
<svg xmlns="http://www.w3.org/2000/svg" viewBox="0 0 200 100">
  <defs>
    <style>
      .cls-1 { fill: #4a88ba; stroke-width: 0px; }
      .cls-2 { fill: #312364; stroke-width: 0px; }
      .cls-3 { fill: #f37321; stroke-width: 0px; }
    </style>
  </defs>
  <rect x="0" y="0" width="200" height="100" fill="#ffffff"/>
  <g transform="translate(-42,15) scale(1.3)">
    <path class="cls-3" d="m70.15,15.91c0,8.78-7.63,15.9-17.03,15.9-8.27,0-15.16-5.52-16.69-12.83l16.57-8.93-11.17-6.03C44.83,1.51,48.8,0,53.14,0c9.4,0,17.02,7.13,17.01,15.91Z"/>
    <path class="cls-2" d="m53.2,35.38c-1.74.2-4.87.83-7.01,2.87l.35-6.14.48-6.61,12.21-.13.13,2.3.42,5.77c-.25.13-.5.25-.78.37-1.83.83-3.8,1.34-5.81,1.57Z"/>
    <path class="cls-2" d="m60.03,37.81l.34,6.05c-.42.24-.87.46-1.36.69-1.83.83-3.8,1.34-5.81,1.57-.15.02-.32.04-.49.06h0c-2,.29-5.22,1.11-7.16,3.51l.25-4.42.12-2.16c1.6-.71,3.24-1,4.34-1.13,2.01-.23,3.98-.74,5.81-1.57,1.86-.84,3.12-1.77,3.97-2.59Z"/>
    <path class="cls-1" d="m45.06,57.9c-.07,1.29-.13,2.44-.18,3.46,0,0-.01.02-.02.03l.2-3.49Z"/>
    <polygon class="cls-2" points="47.02 19.97 59.23 19.98 59.87 22.14 46.38 22.14 47.02 19.97"/>
    <polygon class="cls-2" points="47.01 24.19 59.23 24.2 59.87 23 46.38 23 47.01 24.19"/>
    <path class="cls-2" d="m56.71,14.26v4.86s-7.16,0-7.16,0v-4.86c0-1.76,1.46-3.21,3.32-3.33v-.39c-.17-.07-.29-.24-.29-.43v-.11c0-.26.21-.47.47-.47h.18c.26,0,.47.21.47.47v.11c0,.19-.12.36-.29.43v.39c1.85.13,3.31,1.57,3.31,3.34Z"/>
  </g>
</svg>
